PathFileType	4	(X/Y/Z)	SUBJ82_1_walk_RCNL2025.trc
DataRate	CameraRate	NumFrames	NumMarkers	Units	OrigDataRate	OrigDataStartFrame	OrigNumFrames
100	100	6	25	mm	100	57	226
Frame#	Time	R_Shoulder			L_Shoulder			C7			J_Notch			R_Elbow			L_Elbow			R_Wrist			L_Wrist			R_Asis			L_Asis			Sacral			Thoracic			Sternum			R_Thigh_Lateral			R_Knee_Lateral			R_Shank_Lateral			R_Ankle_Lateral			R_Heel			R_Toe			L_Thigh_Lateral			L_Knee_Lateral			L_Shank_Lateral			L_Ankle_Lateral			L_Heel			L_Toe		
		X1	Y1	Z1	X2	Y2	Z2	X3	Y3	Z3	X4	Y4	Z4	X5	Y5	Z5	X6	Y6	Z6	X7	Y7	Z7	X8	Y8	Z8	X9	Y9	Z9	X10	Y10	Z10	X11	Y11	Z11	X12	Y12	Z12	X13	Y13	Z13	X14	Y14	Z14	X15	Y15	Z15	X16	Y16	Z16	X17	Y17	Z17	X18	Y18	Z18	X19	Y19	Z19	X20	Y20	Z20	X21	Y21	Z21	X22	Y22	Z22	X23	Y23	Z23	X24	Y24	Z24	X25	Y25	Z25
57	0.56000000	-363.749969	1410.879028	-67.271927	-330.128784	1434.514160	-476.231049	-400.680969	1514.237671	-269.690277	-277.541840	1398.180664	-267.151031	-496.783752	1085.067139	-23.346680	-363.904602	1090.759644	-573.539185	-456.797241	827.070862	-40.026281	-200.537125	884.755493	-567.250580	-301.360229	985.695923	-140.774323	-298.977386	996.015930	-408.858521	-477.777405	1003.681091	-275.608917	-497.623688	1280.073853	-289.187683	-256.260254	1221.586914	-271.493042	-233.383575	575.078308	-82.608017	-217.471039	492.549805	-131.211197	-225.688263	264.764496	-82.996857	-186.215073	86.387527	-175.449463	-213.311752	51.798450	-228.822830	-46.882355	75.627312	-166.481873	-464.754852	564.701172	-441.669800	-476.493713	490.262817	-395.061432	-522.945068	260.186615	-424.818817	-566.559448	76.825653	-349.950897	-608.651550	61.480419	-296.385406	-428.127716	45.775742	-328.740173
58	0.57000000	-348.888062	1407.085693	-66.649033	-314.533539	1431.457764	-475.447845	-385.575867	1510.740723	-268.962372	-262.236176	1394.564087	-266.431946	-484.031921	1082.053711	-23.333838	-345.408112	1087.903198	-573.758972	-445.288940	823.926483	-40.728102	-176.667610	886.396545	-567.054169	-285.580597	982.010193	-140.202011	-284.203613	992.828369	-408.527313	-462.617828	1000.085571	-274.455170	-482.948456	1277.173218	-288.699402	-241.111542	1217.847046	-271.121765	-220.580658	569.903870	-84.158089	-201.389862	488.566437	-132.854843	-195.448135	261.100403	-82.495338	-142.626144	84.546875	-172.728867	-167.676575	48.036335	-225.756165	-2.077521	81.774666	-164.582687	-455.987701	563.571655	-441.193604	-468.811829	489.422333	-394.498199	-518.885254	259.949890	-423.847229	-565.989990	77.438660	-349.053772	-608.229370	62.572403	-295.431854	-428.010620	45.718121	-328.417206
59	0.58000000	-333.982147	1403.188477	-65.950294	-298.817383	1428.250977	-474.603058	-370.395447	1507.115723	-268.171600	-246.847244	1390.798340	-265.645142	-470.978546	1078.858887	-23.122482	-327.032959	1084.891724	-573.769348	-433.310928	820.637054	-41.204322	-153.219276	887.908966	-566.708832	-269.654083	978.180603	-139.622025	-269.341400	989.598206	-408.182220	-447.353333	996.376160	-273.141510	-468.143036	1274.131714	-288.028503	-225.900024	1213.998291	-270.667358	-208.458710	564.197205	-85.557961	-185.283096	484.547241	-134.306900	-165.897934	258.401794	-81.719788	-100.658394	84.140800	-169.856964	-123.811737	45.842575	-222.454834	40.703098	88.898788	-162.948288	-446.936798	562.364807	-440.714355	-460.744293	488.510010	-393.945099	-514.726196	259.782104	-422.882416	-565.406189	78.209793	-348.170532	-607.762817	63.881119	-294.514343	-427.896271	45.680660	-328.089325
60	0.59000000	-319.014557	1399.245850	-65.170700	-282.962646	1424.959229	-473.688110	-355.130920	1503.421387	-267.309845	-231.370926	1386.961792	-264.787048	-457.603119	1075.527832	-22.719288	-308.811951	1081.782471	-573.569275	-420.844208	817.240540	-41.427434	-130.244183	889.296967	-566.223114	-253.607483	974.291321	-139.080551	-254.399933	986.372009	-407.837189	-431.989105	992.628540	-271.677155	-453.208801	1271.011597	-287.222137	-210.610413	1210.115356	-270.130249	-196.597076	558.230225	-86.745575	-168.911560	480.669312	-135.494812	-137.010040	256.608246	-80.660202	-60.792816	84.877983	-167.017349	-82.252151	44.921421	-219.123123	81.021164	96.606483	-161.714844	-437.634735	561.150635	-440.244019	-452.320801	487.576477	-393.424164	-510.477142	259.745117	-421.990601	-564.793091	79.195610	-347.373810	-607.252502	65.463219	-293.701172	-427.770782	45.666878	-327.781189
61	0.60000000	-303.967804	1395.318115	-64.306404	-266.957825	1421.648193	-472.694672	-339.772400	1499.719971	-266.370941	-215.802094	1383.135376	-263.852081	-443.887238	1072.108643	-22.127794	-290.774750	1078.639404	-573.167175	-407.869797	813.776581	-41.372761	-107.796326	890.561218	-565.606964	-237.476532	970.433655	-138.613449	-239.381699	983.189636	-407.501770	-416.526123	988.916870	-270.082397	-438.144287	1267.874512	-286.329102	-195.225433	1206.270264	-269.510773	-184.457901	552.341675	-87.664551	-152.068726	477.098389	-136.360901	-108.795387	255.598465	-79.335518	-23.502998	86.361320	-164.400040	-43.517956	44.898617	-215.984085	118.462425	104.363304	-160.980484	-428.087463	560.000977	-439.806824	-443.554688	486.675812	-392.968414	-506.118408	259.900238	-421.248444	-564.122437	80.457916	-346.748108	-606.696472	67.382156	-293.071350	-427.618042	45.678368	-327.521027
62	0.61000000	-288.825012	1391.464966	-63.354610	-250.799927	1418.383057	-471.615967	-324.310730	1496.076294	-265.349884	-200.135086	1379.397949	-262.833038	-429.797333	1068.653198	-21.341116	-272.947083	1075.531494	-572.578064	-394.372330	810.286743	-41.022635	-85.928898	891.698090	-564.870056	-221.289139	966.703186	-138.235123	-224.269760	980.085876	-407.183563	-400.952820	985.308411	-268.383118	-422.940796	1264.776367	-285.390900	-179.727036	1202.529663	-268.806244	-171.439819	546.911438	-88.263306	-134.601807	473.971252	-136.870590	-81.372147	255.185181	-77.817055	10.768256	88.130890	-162.176300	-8.087317	45.365227	-213.253922	152.668472	111.532799	-160.786118	-418.274506	558.978271	-439.432861	-434.437897	485.856354	-392.619080	-501.599182	260.297852	-420.731140	-563.355652	82.054344	-346.376068	-606.085083	69.705231	-292.707001	-427.421021	45.713196	-327.335815
